<svg width="270" height="299" viewBox="0 0 270 299" fill="none" xmlns="http://www.w3.org/2000/svg"><g clip-path="url(#a)"><path d="M43.28 179.543c32.222-42.934 59.024-36.197 66.352-26.444 13.652 18.199-21.582 79.635-79.703 81.344" fill="#000"/><path d="M43.28 179.543c32.222-42.934 59.024-36.197 66.352-26.444 13.652 18.199-21.582 79.635-79.703 81.344" stroke="#000" stroke-width="1.2" stroke-miterlimit="10" stroke-linecap="round" stroke-linejoin="round"/><path d="M43.279 179.545c11.443-15.283 22.284-24.333 31.72-29.059.301.805.1 1.71-.703 2.414-4.417 4.122-26.2 27.852-28.408 37.303l-5.721 2.011 3.111-12.669Z" fill="#00A9FF"/><path d="M45.589 176.529c31.218-39.616 56.916-32.98 64.043-23.428 13.652 18.199-21.582 79.635-79.703 81.344" stroke="#000" stroke-width="1.2" stroke-miterlimit="10" stroke-linecap="round" stroke-linejoin="round"/><path d="M74.303 301.51c-11.544-107.185 5.721-152.332 35.334-160.878 38.646-11.161 82.312-10.256 93.354 5.228 11.042 15.485 31.419 89.69 8.934 156.053" fill="#000"/><path d="M74.303 301.51c-11.544-107.185 5.721-152.332 35.334-160.878 38.646-11.161 82.312-10.256 93.354 5.228 11.042 15.485 31.419 89.69 8.934 156.053" stroke="#000" stroke-width="1.2" stroke-miterlimit="10" stroke-linecap="round" stroke-linejoin="round"/><path d="m88.155 301.915-13.852-.403c-7.228-66.865-3.212-109.598 8.03-134.434-7.026 25.841-2.91 100.549 5.822 134.837Z" fill="#00A9FF"/><path d="M74.303 301.51c-11.544-107.185 5.721-152.332 35.334-160.878 38.646-11.161 82.312-10.256 93.354 5.228 11.042 15.485 31.419 89.69 8.934 156.053" stroke="#000" stroke-width="1.2" stroke-miterlimit="10" stroke-linecap="round" stroke-linejoin="round"/><path d="M229.387 305.231c70.468-42.13 22.988-155.851-16.563-145.696-53.904 13.775 54.507 71.893-40.353 129.708" fill="#000"/><path d="M229.387 305.231c70.468-42.13 22.988-155.851-16.563-145.696-53.904 13.775 54.507 71.893-40.353 129.708" stroke="#000" stroke-width="1.2" stroke-miterlimit="10" stroke-linecap="round" stroke-linejoin="round"/><path d="M173.276 288.739c59.627-36.801 37.342-73.702 27.404-99.141a49.685 49.685 0 0 1 3.915 4.022c36.94 41.124-.301 89.086-11.042 101.554l-8.03-2.212-12.247-4.223Z" fill="#00A9FF"/><path d="M229.387 305.231c70.468-42.13 22.988-155.851-16.563-145.696-53.904 13.775 54.507 71.893-40.353 129.708" stroke="#000" stroke-width="1.2" stroke-miterlimit="10" stroke-linecap="round" stroke-linejoin="round"/><path d="M185.019 91.361c-.803 15.686 4.015 39.215 17.968 54.397-39.55 36.098-80.405 23.931-93.354-5.228 8.231-5.731 14.756-13.072 18.37-26.746" fill="#000"/><path d="M130.514 123.54c-2.209 7.943-11.544 16.59-19.274 20.21-1.204-1.91-.602-1.006-1.505-3.117 7.629-5.229 13.752-11.865 17.466-23.629 2.51 1.709 4.015 3.921 3.313 6.536Z" fill="#00A9FF"/><path d="M185.019 91.361c-.803 15.686 4.015 39.215 17.968 54.397-39.55 36.098-80.405 23.931-93.354-5.228 8.231-5.731 14.756-13.072 18.37-26.746" stroke="#000" stroke-width="1.2" stroke-miterlimit="10" stroke-linecap="round" stroke-linejoin="round"/><path d="M185.319 88.748c1.004-20.21 4.517-40.521 5.119-45.549l8.031 3.62c-1.907-5.027-8.633-26.846-9.838-32.276-4.015 8.044-10.74 18.2-16.261 25.942l8.231.1c-.703 4.223-2.108 9.15-6.324 17.395" fill="#000"/><path d="M188.532 14.441c.1.302.1.604.2 1.006-1.405 8.446-7.829 21.417-7.829 21.417s4.015-.302 3.915 1.106c-.101 1.408-1.908 11.16-4.317 21.316h-5.822l-.502-1.508c4.116-8.144 5.521-13.172 6.224-17.294l-8.231-.1c5.521-7.743 12.346-17.899 16.362-25.943Z" fill="#00A9FF"/><path d="M185.319 88.748c1.004-20.21 4.517-40.521 5.119-45.549l8.031 3.62c-1.907-5.027-8.633-26.846-9.838-32.276-4.015 8.044-10.74 18.2-16.261 25.942l8.231.1c-.703 4.223-2.108 9.15-6.324 17.395" stroke="#000" stroke-width="1.2" stroke-miterlimit="10" stroke-linecap="round" stroke-linejoin="round"/><path d="M123.283 78.794c4.818-19.708 7.428-40.019 8.331-45.147l-8.733 1.207c3.212-4.223 16.061-23.227 18.771-28.053 1.506 8.848 5.019 20.612 8.131 29.561l-7.83-2.312c-.501 4.223-.602 9.35 1.004 18.5" fill="#000"/><path d="M141.653 6.8c.1.504-.201.906-.1 1.509-2.309 9.552-9.637 21.216-9.637 21.216s3.614.201 3.413 1.609c-.201 1.407-1.405 13.272-1.907 25.237l-5.22-2.01c1.706-9.955 2.811-17.898 3.313-20.714l-8.734 1.207c3.313-4.223 16.162-23.227 18.872-28.053Z" fill="#00A9FF"/><path d="M123.283 78.794c4.818-19.708 7.428-40.019 8.331-45.147l-8.733 1.207c3.212-4.223 16.061-23.227 18.771-28.053 1.506 8.848 5.019 20.612 8.131 29.561l-7.83-2.312c-.501 4.223-.602 9.35 1.004 18.5" stroke="#000" stroke-width="1.2" stroke-miterlimit="10" stroke-linecap="round" stroke-linejoin="round"/><path d="M175.582 52.653c-11.343-4.827-24.894-5.832-36.137.502-4.216 2.414-8.031 3.319-11.243 3.52 7.428-11.463 17.567-13.977 27.003-12.569 6.725.905 14.455 2.614 20.377 8.547Z" fill="#fff"/><path d="M171.77 116.299c-5.722 7.039-16.161 12.77-31.118 10.759-14.957-2.011-27.103-15.686-20.478-48.565 6.023-30.366 21.381-36.6 35.134-34.59 13.752 2.012 32.423 7.04 29.813 47.36" fill="#000"/><path d="M171.77 116.299c-5.722 7.039-16.161 12.77-31.118 10.759-14.957-2.011-27.103-15.686-20.478-48.565 6.023-30.366 21.381-36.6 35.134-34.59 13.752 2.012 32.423 7.04 29.813 47.36" stroke="#000" stroke-width="1.2" stroke-miterlimit="10" stroke-linecap="round" stroke-linejoin="round"/><path d="M119.269 83.42c10.339-5.732 33.226-8.145 41.056 5.128 8.432 14.177 2.509 27.852-3.514 37.605-4.617 1.408-10.038 1.911-16.161 1.006-14.254-1.911-25.898-14.379-21.381-43.74Z" fill="#00A9FF" stroke="#000" stroke-width="1.2" stroke-miterlimit="10" stroke-linecap="round" stroke-linejoin="round"/><path d="M139.446 98.803c-3.513-1.508-7.227-1.005-9.737 0m6.323 11.363c-2.409 2.715-2.509 8.346 2.309 10.859" stroke="#000" stroke-width="1.2" stroke-miterlimit="10" stroke-linecap="round" stroke-linejoin="round"/><path d="M175.89 84.024c.903-9.15 4.818-16.289 8.733-15.887l5.521.604-.603 6.435c.603 2.916.803 6.535.502 10.356-.401 3.821-1.305 7.34-2.509 10.055l-.603 6.435-5.52-.603c-4.016-.503-6.425-8.245-5.521-17.395Z" fill="#fff" stroke="#000" stroke-width="1.2" stroke-miterlimit="10" stroke-linecap="round" stroke-linejoin="round"/><path d="M186.87 101.942c-3.861-.388-6.246-8.138-5.327-17.31.919-9.173 4.795-16.294 8.656-15.905 3.861.388 6.246 8.138 5.327 17.31-.919 9.173-4.795 16.293-8.656 15.905Z" fill="#fff" stroke="#000" stroke-width="1.2" stroke-miterlimit="10" stroke-linecap="round" stroke-linejoin="round"/><path d="M185.723 84.624c-.803 7.44 7.83 10.055 12.648 11.463 1.506-4.022 2.409-12.167 1.908-14.68-3.715-1.61-13.552-6.436-14.556 3.217Zm-49.768 135.183c-18.62-2.097-32.601-13.727-31.226-25.978 1.375-12.25 17.584-20.482 36.204-18.385 18.621 2.097 32.601 13.727 31.226 25.978-1.374 12.25-17.584 20.481-36.204 18.385Z" fill="#fff" stroke="#000" stroke-width="1.2" stroke-miterlimit="10" stroke-linecap="round" stroke-linejoin="round"/><path d="m156.115 226.397-10.941-19.004 14.756-.503-35.033-24.433-3.413 29.763 11.042-3.017 9.837 20.311 13.752-3.117Z" fill="#fff" stroke="#000" stroke-width="1.2" stroke-miterlimit="10" stroke-linecap="round" stroke-linejoin="round"/><path d="m146.57 64.01 3.212-7.541 4.618-6.636 4.919-4.525h2.509l-.401-2.313-5.521-1.81-6.124 2.514-9.235 9.553-2.007 4.926 8.03 5.832Z" fill="#fff"/><path d="M139.446 55.867c3.413-8.546 9.536-20.411 21.783-13.071l-21.783 13.071Z" fill="#fff"/><path d="M139.446 55.867c3.413-8.546 9.536-20.411 21.783-13.071" stroke="#000" stroke-width="1.2" stroke-miterlimit="10" stroke-linecap="round" stroke-linejoin="round"/><path d="M162.934 45.612c0-4.424-10.039-7.943-18.37 13.172" stroke="#000" stroke-width="1.2" stroke-miterlimit="10" stroke-linecap="round" stroke-linejoin="round"/><path d="M162.934 45.611c-3.313-1.71-11.143 3.922-15.158 16.792" stroke="#000" stroke-width="1.2" stroke-miterlimit="10" stroke-linecap="round" stroke-linejoin="round"/><path d="m49.51 116.702 4.317 10.558-8.13 13.172s-14.656 4.323-14.857 4.525c-.2.1-19.876-7.843-19.876-7.843l1.506-20.211 4.417-16.791 4.718-3.419 4.918 2.212 6.023-3.218 16.362 5.732.603 15.283Z" fill="#000"/><path d="M49.508 116.701c.803-18.602 15.258-44.04 10.139-45.95-5.12-1.911-14.957 14.579-16.764 24.734" fill="#000"/><path d="M49.508 116.701c.803-18.602 15.258-44.04 10.139-45.95-5.12-1.911-14.957 14.579-16.764 24.734" stroke="#000" stroke-width="1.2" stroke-miterlimit="10" stroke-linecap="round" stroke-linejoin="round"/><path d="M45.594 140.328c10.44-7.139 9.736-15.384 18.871-23.629 10.741-9.653 7.228-13.474-.602-10.659-7.127 2.615-13.853 8.346-14.355 10.558" fill="#000"/><path d="M45.594 140.328c10.44-7.139 9.736-15.384 18.871-23.629 10.741-9.653 7.228-13.474-.602-10.659-7.127 2.615-13.853 8.346-14.355 10.558" stroke="#000" stroke-width="1.2" stroke-miterlimit="10" stroke-linecap="round" stroke-linejoin="round"/><path d="M34.25 96.692c7.327-5.831 10.94 1.207 12.647 8.346 1.707 7.139-3.714 25.942-10.239 13.876" fill="#000"/><path d="M34.25 96.692c7.327-5.831 10.94 1.207 12.647 8.346 1.707 7.139-3.714 25.942-10.239 13.876" stroke="#00A9FF" stroke-width="1.2" stroke-miterlimit="10" stroke-linecap="round" stroke-linejoin="round"/><path d="M26.52 98.804c4.416-6.234 9.837-2.916 11.644 5.932 1.505 7.139-2.209 26.646-9.637 12.468" fill="#000"/><path d="M26.52 98.804c4.416-6.234 9.837-2.916 11.644 5.932 1.505 7.139-2.209 26.646-9.637 12.468" stroke="#00A9FF" stroke-width="1.2" stroke-miterlimit="10" stroke-linecap="round" stroke-linejoin="round"/><path d="M20.8 111.975c-.201 3.72 2.208 9.25 4.115 9.049 3.714-.402 6.224-9.25 4.517-16.389-1.706-7.14-6.826-10.357-11.042-6.536-2.61 2.413-9.134 11.06-7.528 38.812" stroke="#00A9FF" stroke-width="1.2" stroke-miterlimit="10" stroke-linecap="round" stroke-linejoin="round"/><path d="M18.392 101.016c-3.915 5.932-3.514 25.237-3.112 33.583l-4.317 2.413c-1.706-27.751 4.819-33.483 7.429-35.996Z" fill="#00A9FF"/><path d="M29.933 234.444c-36.84-3.318-20.78-78.127-19.073-97.432 5.32-5.832 28.408-3.921 34.632 3.419-.703 15.484-1.004 45.347 1.706 62.24" fill="#000"/><path d="M45.093 171.5c-7.027 6.234-27.505 10.256-38.446 1.508" stroke="#00A9FF" stroke-width="1.2" stroke-miterlimit="10" stroke-linecap="round" stroke-linejoin="round"/><path d="M26.222 233.842c-32.022-7.944-16.965-79.736-15.258-98.438 1.004-1.005 2.51-.201 4.316-.804-1.104 13.976-4.216 39.918-3.513 60.43.803 25.941 9.235 35.292 14.455 38.812Z" fill="#00A9FF"/><path d="M45.592 140.332c-.702 15.485-1.003 45.348 1.707 62.24m-17.364 31.872c-36.84-3.318-20.78-78.127-19.073-97.432m9.036-37.409c-2.61 2.414-10.54 9.653-8.934 37.405" stroke="#000" stroke-width="1.2" stroke-miterlimit="10" stroke-linecap="round" stroke-linejoin="round"/><path d="M11.966 176.023c-1.907-.804-3.714-1.81-5.32-3.117" stroke="#000" stroke-width="1.2" stroke-miterlimit="10" stroke-linecap="round" stroke-linejoin="round"/><path d="M113.751 151.688c-2.309-4.726-.602-12.669 5.722-20.11-11.645 0-21.382 4.223-29.713 8.446" fill="#000"/><path d="M99.793 142.34c-9.034-5.33-25.396-.805-31.118 11.663 13.953-3.217 28.71-2.715 36.137 3.62" fill="#000"/><path d="M119.57 131.578c-.502.503-.903 1.106-1.305 1.609-.401.1 0-.804-.502-.704-8.331 1.408-15.96 4.424-20.879 8.446l-.803-.201-6.324-.704c8.432-4.122 18.069-8.446 29.813-8.446Z" fill="#00A9FF"/><path d="M77.81 149.278c6.324-.402 12.046-.1 21.38 4.927l5.02 1.609-1.405.402c-7.93-5.027-21.382-5.128-34.13-2.212 4.317-9.452 15.86-16.792 31.118-11.664-11.845-.704-19.173 3.419-21.983 6.938Z" fill="#00A9FF"/><path d="M113.751 151.688c-2.309-4.726-.602-12.669 5.722-20.11-11.645 0-21.382 4.223-29.713 8.446" stroke="#000" stroke-width="1.2" stroke-miterlimit="10" stroke-linecap="round" stroke-linejoin="round"/><path d="M99.793 142.34c-9.034-5.33-25.396-.805-31.118 11.663 13.953-3.217 28.71-2.715 36.137 3.62" stroke="#000" stroke-width="1.2" stroke-miterlimit="10" stroke-linecap="round" stroke-linejoin="round"/><path d="M102.191 159.261c-1.039-3.106 1.953-6.912 6.684-8.501 4.731-1.588 9.409-.357 10.449 2.75 1.039 3.106-1.953 6.912-6.684 8.501-4.731 1.588-9.409.357-10.449-2.75Z" fill="#00A9FF" stroke="#000" stroke-width="1.2" stroke-miterlimit="10" stroke-linecap="round" stroke-linejoin="round"/><path d="M107.323 160.839c7.73-.402 11.544-5.932 8.633-7.642-3.112-1.81-6.826-.402-5.019.302 2.509.804 2.008 4.525-3.614 7.34Zm67.359 3.117c21.381-8.044 23.589-17.093 24.292-26.444 9.536 1.91 23.188 7.34 30.817 20.11" fill="#000"/><path d="M174.682 163.956c21.381-8.044 23.589-17.093 24.292-26.444 9.536 1.91 23.188 7.34 30.817 20.11" stroke="#00A9FF" stroke-width="1.2" stroke-miterlimit="10" stroke-linecap="round" stroke-linejoin="round"/><path d="M202.385 154.606c12.749-3.921 44.871.402 47.179 23.529-21.08-11.664-52.9-14.781-65.448-9.351" fill="#000"/><path d="M202.385 154.606c12.749-3.921 44.871.402 47.179 23.529-21.08-11.664-52.9-14.781-65.448-9.351" stroke="#00A9FF" stroke-width="1.2" stroke-miterlimit="10" stroke-linecap="round" stroke-linejoin="round"/><path d="M177.06 171.52c-4.766-1.476-7.848-5.209-6.883-8.339.966-3.131 5.613-4.472 10.38-2.997 4.767 1.475 7.849 5.209 6.883 8.339-.965 3.131-5.613 4.472-10.38 2.997Z" fill="#00A9FF" stroke="#000" stroke-width="1.2" stroke-miterlimit="10" stroke-linecap="round" stroke-linejoin="round"/><path d="M173.477 167.474c6.525 4.223 12.849 1.911 11.443-1.106-1.505-3.217-5.32-4.323-4.216-2.715 1.506 2.112-1.003 4.827-7.227 3.821ZM45.491 77.886l7.529 7.038 18.169-.301 24.493-.805 5.219-2.413-17.968-13.272-23.489.905-13.953 8.848Z" fill="#000"/><path d="M76.611 39.68H91.97v14.88H76.61V39.68Z" fill="#000" stroke="#000" stroke-width="1.2" stroke-miterlimit="10" stroke-linecap="round" stroke-linejoin="round"/><path d="M76.61 39.68h4.015v14.88H76.61V39.68Z" fill="#fff" stroke="#000" stroke-width="1.2" stroke-miterlimit="10" stroke-linecap="round" stroke-linejoin="round"/><path d="M77.613 41.387c4.015.503 13.15 1.408 17.667 1.408 2.81 0 5.019-2.614 5.019-5.732 0-2.614-1.506-4.826-3.614-5.53-4.115-1.609-10.138-3.519-16.764-5.228" fill="#000"/><path d="M77.613 41.387c4.015.503 13.15 1.408 17.667 1.408 2.81 0 5.019-2.614 5.019-5.732 0-2.614-1.506-4.826-3.614-5.53-4.115-1.609-10.138-3.519-16.764-5.228" stroke="#000" stroke-width="1.2" stroke-miterlimit="10" stroke-linecap="round" stroke-linejoin="round"/><path d="M78.617 41.487c-3.714 0-6.725-3.422-6.725-7.642 0-4.22 3.01-7.642 6.725-7.642s6.726 3.421 6.726 7.642c0 4.22-3.011 7.642-6.726 7.642Z" fill="#fff" stroke="#000" stroke-width="1.2" stroke-miterlimit="10" stroke-linecap="round" stroke-linejoin="round"/><path d="M78.617 38.165c-2.051 0-3.714-1.936-3.714-4.324s1.663-4.323 3.714-4.323 3.714 1.935 3.714 4.323c0 2.388-1.663 4.324-3.714 4.324Z" fill="#000"/><path d="M118.97 41.188c22.988 13.674 42.16 25.539 43.967 27.55 4.015 4.525-.401 13.976-3.513 14.58-5.12 1.005-37.543 2.212-53.202 1.608" fill="#fff"/><path d="M118.97 41.188c22.988 13.674 42.16 25.539 43.967 27.55 4.015 4.525-.401 13.976-3.513 14.58-5.12 1.005-37.543 2.212-53.202 1.608m-55.811-.001c9.035.503 44.268-1.508 47.882-1.609" stroke="#000" stroke-width="1.2" stroke-miterlimit="10" stroke-linecap="round" stroke-linejoin="round"/><path d="M158.42 65.522c2.008 4.222.803 14.68-4.818 18.4" stroke="#000" stroke-width="1.2" stroke-miterlimit="10" stroke-linecap="round" stroke-linejoin="round"/><path d="M78.315 75.475c9.838 0 17.065 9.553 27.906 9.553 12.849 0 23.289-10.659 23.289-23.83 0-13.173-10.44-23.83-23.289-23.83-10.84 0-18.068 9.551-27.906 9.551-9.837 0-17.064-9.552-27.905-9.552-12.85 0-23.289 10.658-23.289 23.83 0 13.172 10.34 23.73 23.289 23.73 10.74 0 17.968-9.452 27.905-9.452Z" fill="#fff" stroke="#000" stroke-width="1.2" stroke-miterlimit="10" stroke-linecap="round" stroke-linejoin="round"/><path d="M50.41 76.079c-8.094 0-14.656-6.708-14.656-14.982s6.562-14.982 14.656-14.982c8.094 0 14.655 6.708 14.655 14.982S58.504 76.08 50.41 76.08Zm55.812 0c-8.094 0-14.655-6.708-14.655-14.982s6.561-14.982 14.655-14.982 14.656 6.708 14.656 14.982-6.562 14.982-14.656 14.982Z" fill="#000" stroke="#000" stroke-width="1.2" stroke-miterlimit="10" stroke-linecap="round" stroke-linejoin="round"/><path d="M78.314 64.111a3.014 3.014 0 0 1-3.012-3.016 3.014 3.014 0 0 1 3.012-3.017 3.014 3.014 0 0 1 3.011 3.017 3.014 3.014 0 0 1-3.011 3.016Z" fill="#000"/></g><defs><clipPath id="a"><path fill="#fff" d="M0 0h270v299H0z"/></clipPath></defs></svg>